<svg width="200" height="250" viewBox="0 0 200 250" fill="none" xmlns="http://www.w3.org/2000/svg">
<rect x="105" y="3" width="91" height="141" rx="12" fill="#BEBEBE"/>
<path d="M155.215 0C157.478 0 159 2.73653 159 5V5V96C159 100.971 163.029 105 168 105H192C196.418 105 200 108.582 200 113V241C200 245.971 195.971 250 191 250H9C4.02944 250 0 245.971 0 241V9C1.80398e-06 4.02944 4.02944 1.93277e-07 9 0H155.215Z" fill="#E3AE00"/>
<path d="M17.684 156.29C16.1567 156.29 14.987 155.855 14.175 154.985C13.3823 154.115 12.986 152.887 12.986 151.302V140.398C12.986 138.813 13.3823 137.585 14.175 136.715C14.987 135.845 16.1567 135.41 17.684 135.41C19.2113 135.41 20.3713 135.845 21.164 136.715C21.976 137.585 22.382 138.813 22.382 140.398V142.544H19.366V140.195C19.366 138.938 18.8343 138.31 17.771 138.31C16.7077 138.31 16.176 138.938 16.176 140.195V151.534C16.176 152.771 16.7077 153.39 17.771 153.39C18.8343 153.39 19.366 152.771 19.366 151.534V148.431H22.382V151.302C22.382 152.887 21.976 154.115 21.164 154.985C20.3713 155.855 19.2113 156.29 17.684 156.29ZM24.2906 135.7H27.4806V153.1H32.7296V156H24.2906V135.7ZM36.8376 135.7H41.1586L44.4646 156H41.2746L40.6946 151.969V152.027H37.0696L36.4896 156H33.5316L36.8376 135.7ZM40.3176 149.272L38.8966 139.238H38.8386L37.4466 149.272H40.3176ZM50.0743 156.29C48.5276 156.29 47.3579 155.855 46.5653 154.985C45.7726 154.096 45.3763 152.829 45.3763 151.186V150.026H48.3923V151.418C48.3923 152.733 48.9433 153.39 50.0453 153.39C50.5866 153.39 50.9926 153.235 51.2633 152.926C51.5533 152.597 51.6983 152.075 51.6983 151.36C51.6983 150.509 51.5049 149.765 51.1183 149.127C50.7316 148.47 50.0163 147.687 48.9723 146.778C47.6576 145.618 46.7393 144.574 46.2173 143.646C45.6953 142.699 45.4343 141.635 45.4343 140.456C45.4343 138.851 45.8403 137.614 46.6523 136.744C47.4643 135.855 48.6436 135.41 50.1903 135.41C51.7176 135.41 52.8679 135.855 53.6413 136.744C54.4339 137.614 54.8303 138.871 54.8303 140.514V141.355H51.8143V140.311C51.8143 139.615 51.6789 139.112 51.4083 138.803C51.1376 138.474 50.7413 138.31 50.2193 138.31C49.1559 138.31 48.6243 138.958 48.6243 140.253C48.6243 140.988 48.8176 141.674 49.2043 142.312C49.6103 142.95 50.3353 143.723 51.3793 144.632C52.7133 145.792 53.6316 146.846 54.1343 147.793C54.6369 148.74 54.8883 149.852 54.8883 151.128C54.8883 152.791 54.4726 154.067 53.6413 154.956C52.8293 155.845 51.6403 156.29 50.0743 156.29ZM60.8643 156.29C59.3177 156.29 58.148 155.855 57.3553 154.985C56.5627 154.096 56.1663 152.829 56.1663 151.186V150.026H59.1823V151.418C59.1823 152.733 59.7333 153.39 60.8353 153.39C61.3767 153.39 61.7827 153.235 62.0533 152.926C62.3433 152.597 62.4883 152.075 62.4883 151.36C62.4883 150.509 62.295 149.765 61.9083 149.127C61.5217 148.47 60.8063 147.687 59.7623 146.778C58.4477 145.618 57.5293 144.574 57.0073 143.646C56.4853 142.699 56.2243 141.635 56.2243 140.456C56.2243 138.851 56.6303 137.614 57.4423 136.744C58.2543 135.855 59.4337 135.41 60.9803 135.41C62.5077 135.41 63.658 135.855 64.4313 136.744C65.224 137.614 65.6203 138.871 65.6203 140.514V141.355H62.6043V140.311C62.6043 139.615 62.469 139.112 62.1983 138.803C61.9277 138.474 61.5313 138.31 61.0093 138.31C59.946 138.31 59.4143 138.958 59.4143 140.253C59.4143 140.988 59.6077 141.674 59.9943 142.312C60.4003 142.95 61.1253 143.723 62.1693 144.632C63.5033 145.792 64.4217 146.846 64.9243 147.793C65.427 148.74 65.6783 149.852 65.6783 151.128C65.6783 152.791 65.2627 154.067 64.4313 154.956C63.6193 155.845 62.4303 156.29 60.8643 156.29ZM67.5074 135.7H70.6974V156H67.5074V135.7ZM73.0865 135.7H81.5255V138.6H76.2765V144.255H80.3945V147.155H76.2765V156H73.0865V135.7ZM83.0552 135.7H86.2452V156H83.0552V135.7ZM88.6343 135.7H97.3343V138.6H91.8243V143.965H96.2033V146.865H91.8243V153.1H97.3343V156H88.6343V135.7ZM99.1695 135.7H104.041C105.627 135.7 106.816 136.125 107.608 136.976C108.401 137.827 108.797 139.074 108.797 140.717V150.983C108.797 152.626 108.401 153.873 107.608 154.724C106.816 155.575 105.627 156 104.041 156H99.1695V135.7ZM103.983 153.1C104.505 153.1 104.902 152.945 105.172 152.636C105.462 152.327 105.607 151.824 105.607 151.128V140.572C105.607 139.876 105.462 139.373 105.172 139.064C104.902 138.755 104.505 138.6 103.983 138.6H102.359V153.1H103.983ZM115.595 135.7H124.034V138.6H118.785V144.255H122.903V147.155H118.785V156H115.595V135.7ZM125.564 135.7H128.754V156H125.564V135.7ZM131.143 135.7H134.333V153.1H139.582V156H131.143V135.7ZM141.112 135.7H149.812V138.6H144.302V143.965H148.681V146.865H144.302V153.1H149.812V156H141.112V135.7ZM151.647 141.877H154.721V144.951H151.647V141.877ZM151.647 152.926H154.721V156H151.647V152.926ZM166.252 156.29C164.725 156.29 163.555 155.855 162.743 154.985C161.951 154.115 161.554 152.887 161.554 151.302V140.398C161.554 138.813 161.951 137.585 162.743 136.715C163.555 135.845 164.725 135.41 166.252 135.41C167.78 135.41 168.94 135.845 169.732 136.715C170.544 137.585 170.95 138.813 170.95 140.398V142.544H167.934V140.195C167.934 138.938 167.403 138.31 166.339 138.31C165.276 138.31 164.744 138.938 164.744 140.195V151.534C164.744 152.771 165.276 153.39 166.339 153.39C167.403 153.39 167.934 152.771 167.934 151.534V148.431H170.95V151.302C170.95 152.887 170.544 154.115 169.732 154.985C168.94 155.855 167.78 156.29 166.252 156.29ZM172.018 135.7H175.237L177.325 151.447H177.383L179.471 135.7H182.4L179.326 156H175.092L172.018 135.7Z" fill="black"/>
<path d="M22.9 189L21.18 184.58H15.52L13.82 189H12L17.58 174.66H19.2L24.76 189H22.9ZM19.04 178.66C19 178.553 18.9333 178.36 18.84 178.08C18.7467 177.8 18.6533 177.513 18.56 177.22C18.48 176.913 18.4133 176.68 18.36 176.52C18.2933 176.787 18.22 177.06 18.14 177.34C18.0733 177.607 18 177.853 17.92 178.08C17.8533 178.307 17.7933 178.5 17.74 178.66L16.12 182.98H20.64L19.04 178.66ZM30.7734 189.2C29.8268 189.2 28.9801 189.007 28.2334 188.62C27.5001 188.233 26.9201 187.633 26.4934 186.82C26.0801 186.007 25.8734 184.967 25.8734 183.7C25.8734 182.38 26.0934 181.307 26.5334 180.48C26.9734 179.653 27.5668 179.047 28.3134 178.66C29.0734 178.273 29.9334 178.08 30.8934 178.08C31.4401 178.08 31.9668 178.14 32.4734 178.26C32.9801 178.367 33.3934 178.5 33.7134 178.66L33.1734 180.12C32.8534 180 32.4801 179.887 32.0534 179.78C31.6268 179.673 31.2268 179.62 30.8534 179.62C30.1334 179.62 29.5401 179.773 29.0734 180.08C28.6068 180.387 28.2601 180.84 28.0334 181.44C27.8068 182.04 27.6934 182.787 27.6934 183.68C27.6934 184.533 27.8068 185.26 28.0334 185.86C28.2601 186.46 28.6001 186.913 29.0534 187.22C29.5068 187.527 30.0734 187.68 30.7534 187.68C31.3401 187.68 31.8534 187.62 32.2934 187.5C32.7468 187.38 33.1601 187.233 33.5334 187.06V188.62C33.1734 188.807 32.7734 188.947 32.3334 189.04C31.9068 189.147 31.3868 189.2 30.7734 189.2ZM40.3828 189.2C39.4361 189.2 38.5895 189.007 37.8428 188.62C37.1095 188.233 36.5295 187.633 36.1028 186.82C35.6895 186.007 35.4828 184.967 35.4828 183.7C35.4828 182.38 35.7028 181.307 36.1428 180.48C36.5828 179.653 37.1761 179.047 37.9228 178.66C38.6828 178.273 39.5428 178.08 40.5028 178.08C41.0495 178.08 41.5761 178.14 42.0828 178.26C42.5895 178.367 43.0028 178.5 43.3228 178.66L42.7828 180.12C42.4628 180 42.0895 179.887 41.6628 179.78C41.2361 179.673 40.8361 179.62 40.4628 179.62C39.7428 179.62 39.1495 179.773 38.6828 180.08C38.2161 180.387 37.8695 180.84 37.6428 181.44C37.4161 182.04 37.3028 182.787 37.3028 183.68C37.3028 184.533 37.4161 185.26 37.6428 185.86C37.8695 186.46 38.2095 186.913 38.6628 187.22C39.1161 187.527 39.6828 187.68 40.3628 187.68C40.9495 187.68 41.4628 187.62 41.9028 187.5C42.3561 187.38 42.7695 187.233 43.1428 187.06V188.62C42.7828 188.807 42.3828 188.947 41.9428 189.04C41.5161 189.147 40.9961 189.2 40.3828 189.2ZM49.8322 178.08C50.7522 178.08 51.5389 178.28 52.1922 178.68C52.8589 179.08 53.3655 179.647 53.7122 180.38C54.0722 181.1 54.2522 181.947 54.2522 182.92V183.98H46.9122C46.9389 185.193 47.2455 186.12 47.8322 186.76C48.4322 187.387 49.2655 187.7 50.3322 187.7C51.0122 187.7 51.6122 187.64 52.1322 187.52C52.6655 187.387 53.2122 187.2 53.7722 186.96V188.5C53.2255 188.74 52.6855 188.913 52.1522 189.02C51.6189 189.14 50.9855 189.2 50.2522 189.2C49.2389 189.2 48.3389 188.993 47.5522 188.58C46.7789 188.167 46.1722 187.553 45.7322 186.74C45.3055 185.913 45.0922 184.907 45.0922 183.72C45.0922 182.547 45.2855 181.54 45.6722 180.7C46.0722 179.86 46.6255 179.213 47.3322 178.76C48.0522 178.307 48.8855 178.08 49.8322 178.08ZM49.8122 179.52C48.9722 179.52 48.3055 179.793 47.8122 180.34C47.3322 180.873 47.0455 181.62 46.9522 182.58H52.4122C52.4122 181.967 52.3189 181.433 52.1322 180.98C51.9455 180.527 51.6589 180.173 51.2722 179.92C50.8989 179.653 50.4122 179.52 49.8122 179.52ZM63.9613 186.04C63.9613 186.733 63.7879 187.313 63.4413 187.78C63.0946 188.247 62.6013 188.6 61.9613 188.84C61.3213 189.08 60.5613 189.2 59.6813 189.2C58.9346 189.2 58.2879 189.14 57.7413 189.02C57.2079 188.9 56.7346 188.733 56.3213 188.52V186.92C56.7479 187.133 57.2613 187.333 57.8613 187.52C58.4746 187.693 59.0946 187.78 59.7213 187.78C60.6146 187.78 61.2613 187.64 61.6613 187.36C62.0613 187.067 62.2613 186.68 62.2613 186.2C62.2613 185.933 62.1879 185.693 62.0413 185.48C61.8946 185.267 61.6279 185.053 61.2413 184.84C60.8679 184.627 60.3279 184.387 59.6213 184.12C58.9279 183.853 58.3346 183.587 57.8413 183.32C57.3479 183.053 56.9679 182.733 56.7013 182.36C56.4346 181.987 56.3013 181.507 56.3013 180.92C56.3013 180.013 56.6679 179.313 57.4013 178.82C58.1479 178.327 59.1213 178.08 60.3213 178.08C60.9746 178.08 61.5813 178.147 62.1413 178.28C62.7146 178.4 63.2479 178.573 63.7413 178.8L63.1413 180.2C62.8479 180.067 62.5346 179.953 62.2013 179.86C61.8813 179.753 61.5546 179.673 61.2213 179.62C60.8879 179.553 60.5479 179.52 60.2013 179.52C59.4813 179.52 58.9279 179.64 58.5413 179.88C58.1679 180.107 57.9813 180.42 57.9813 180.82C57.9813 181.113 58.0679 181.367 58.2413 181.58C58.4146 181.78 58.7013 181.98 59.1013 182.18C59.5146 182.367 60.0613 182.593 60.7413 182.86C61.4213 183.113 62.0013 183.373 62.4813 183.64C62.9613 183.907 63.3279 184.233 63.5813 184.62C63.8346 184.993 63.9613 185.467 63.9613 186.04ZM73.5316 186.04C73.5316 186.733 73.3582 187.313 73.0116 187.78C72.6649 188.247 72.1716 188.6 71.5316 188.84C70.8916 189.08 70.1316 189.2 69.2516 189.2C68.5049 189.2 67.8582 189.14 67.3116 189.02C66.7782 188.9 66.3049 188.733 65.8916 188.52V186.92C66.3182 187.133 66.8316 187.333 67.4316 187.52C68.0449 187.693 68.6649 187.78 69.2916 187.78C70.1849 187.78 70.8316 187.64 71.2316 187.36C71.6316 187.067 71.8316 186.68 71.8316 186.2C71.8316 185.933 71.7582 185.693 71.6116 185.48C71.4649 185.267 71.1982 185.053 70.8116 184.84C70.4382 184.627 69.8982 184.387 69.1916 184.12C68.4982 183.853 67.9049 183.587 67.4116 183.32C66.9182 183.053 66.5382 182.733 66.2716 182.36C66.0049 181.987 65.8716 181.507 65.8716 180.92C65.8716 180.013 66.2382 179.313 66.9716 178.82C67.7182 178.327 68.6916 178.08 69.8916 178.08C70.5449 178.08 71.1516 178.147 71.7116 178.28C72.2849 178.4 72.8182 178.573 73.3116 178.8L72.7116 180.2C72.4182 180.067 72.1049 179.953 71.7716 179.86C71.4516 179.753 71.1249 179.673 70.7916 179.62C70.4582 179.553 70.1182 179.52 69.7716 179.52C69.0516 179.52 68.4982 179.64 68.1116 179.88C67.7382 180.107 67.5516 180.42 67.5516 180.82C67.5516 181.113 67.6382 181.367 67.8116 181.58C67.9849 181.78 68.2716 181.98 68.6716 182.18C69.0849 182.367 69.6316 182.593 70.3116 182.86C70.9916 183.113 71.5716 183.373 72.0516 183.64C72.5316 183.907 72.8982 184.233 73.1516 184.62C73.4049 184.993 73.5316 185.467 73.5316 186.04ZM87.7572 181.46H92.6972V188.46C91.9239 188.713 91.1439 188.9 90.3572 189.02C89.5705 189.14 88.6772 189.2 87.6772 189.2C86.1972 189.2 84.9505 188.907 83.9372 188.32C82.9239 187.72 82.1505 186.873 81.6172 185.78C81.0972 184.673 80.8372 183.367 80.8372 181.86C80.8372 180.367 81.1305 179.073 81.7172 177.98C82.3039 176.887 83.1439 176.04 84.2372 175.44C85.3439 174.827 86.6772 174.52 88.2372 174.52C89.0372 174.52 89.7905 174.593 90.4972 174.74C91.2172 174.887 91.8839 175.093 92.4972 175.36L91.8172 176.92C91.3105 176.693 90.7372 176.5 90.0972 176.34C89.4705 176.18 88.8172 176.1 88.1372 176.1C87.0039 176.1 86.0305 176.333 85.2172 176.8C84.4039 177.267 83.7839 177.933 83.3572 178.8C82.9305 179.653 82.7172 180.673 82.7172 181.86C82.7172 182.993 82.8972 184 83.2572 184.88C83.6305 185.747 84.2105 186.427 84.9972 186.92C85.7839 187.4 86.8172 187.64 88.0972 187.64C88.5239 187.64 88.8972 187.627 89.2172 187.6C89.5505 187.56 89.8505 187.513 90.1172 187.46C90.3972 187.407 90.6572 187.353 90.8972 187.3V183.06H87.7572V181.46ZM100.868 178.08C101.068 178.08 101.281 178.093 101.508 178.12C101.748 178.133 101.955 178.16 102.128 178.2L101.908 179.82C101.735 179.78 101.541 179.747 101.328 179.72C101.128 179.693 100.935 179.68 100.748 179.68C100.335 179.68 99.9413 179.767 99.568 179.94C99.1946 180.113 98.8613 180.36 98.568 180.68C98.2746 180.987 98.0413 181.36 97.868 181.8C97.708 182.24 97.628 182.733 97.628 183.28V189H95.868V178.28H97.308L97.508 180.24H97.588C97.8146 179.84 98.088 179.48 98.408 179.16C98.728 178.827 99.0946 178.567 99.508 178.38C99.9213 178.18 100.375 178.08 100.868 178.08ZM107.799 178.1C109.106 178.1 110.072 178.387 110.699 178.96C111.326 179.533 111.639 180.447 111.639 181.7V189H110.359L110.019 187.48H109.939C109.632 187.867 109.312 188.193 108.979 188.46C108.659 188.713 108.286 188.9 107.859 189.02C107.446 189.14 106.939 189.2 106.339 189.2C105.699 189.2 105.119 189.087 104.599 188.86C104.092 188.633 103.692 188.287 103.399 187.82C103.106 187.34 102.959 186.74 102.959 186.02C102.959 184.953 103.379 184.133 104.219 183.56C105.059 182.973 106.352 182.653 108.099 182.6L109.919 182.54V181.9C109.919 181.007 109.726 180.387 109.339 180.04C108.952 179.693 108.406 179.52 107.699 179.52C107.139 179.52 106.606 179.607 106.099 179.78C105.592 179.94 105.119 180.127 104.679 180.34L104.139 179.02C104.606 178.767 105.159 178.553 105.799 178.38C106.439 178.193 107.106 178.1 107.799 178.1ZM108.319 183.82C106.986 183.873 106.059 184.087 105.539 184.46C105.032 184.833 104.779 185.36 104.779 186.04C104.779 186.64 104.959 187.08 105.319 187.36C105.692 187.64 106.166 187.78 106.739 187.78C107.646 187.78 108.399 187.533 108.999 187.04C109.599 186.533 109.899 185.76 109.899 184.72V183.76L108.319 183.82ZM120.11 178.08C121.39 178.08 122.357 178.393 123.01 179.02C123.663 179.633 123.99 180.633 123.99 182.02V189H122.25V182.14C122.25 181.273 122.057 180.627 121.67 180.2C121.283 179.773 120.677 179.56 119.85 179.56C118.663 179.56 117.843 179.893 117.39 180.56C116.937 181.227 116.71 182.187 116.71 183.44V189H114.95V178.28H116.37L116.63 179.74H116.73C116.97 179.367 117.263 179.06 117.61 178.82C117.97 178.567 118.363 178.38 118.79 178.26C119.217 178.14 119.657 178.08 120.11 178.08ZM130.893 187.76C131.16 187.76 131.433 187.74 131.713 187.7C131.993 187.647 132.22 187.593 132.393 187.54V188.88C132.207 188.973 131.94 189.047 131.593 189.1C131.247 189.167 130.913 189.2 130.593 189.2C130.033 189.2 129.513 189.107 129.033 188.92C128.567 188.72 128.187 188.38 127.893 187.9C127.6 187.42 127.453 186.747 127.453 185.88V179.64H125.933V178.8L127.473 178.1L128.173 175.82H129.213V178.28H132.313V179.64H129.213V185.84C129.213 186.493 129.367 186.98 129.673 187.3C129.993 187.607 130.4 187.76 130.893 187.76ZM138.68 178.08C139.6 178.08 140.387 178.28 141.04 178.68C141.707 179.08 142.213 179.647 142.56 180.38C142.92 181.1 143.1 181.947 143.1 182.92V183.98H135.76C135.787 185.193 136.093 186.12 136.68 186.76C137.28 187.387 138.113 187.7 139.18 187.7C139.86 187.7 140.46 187.64 140.98 187.52C141.513 187.387 142.06 187.2 142.62 186.96V188.5C142.073 188.74 141.533 188.913 141 189.02C140.467 189.14 139.833 189.2 139.1 189.2C138.087 189.2 137.187 188.993 136.4 188.58C135.627 188.167 135.02 187.553 134.58 186.74C134.153 185.913 133.94 184.907 133.94 183.72C133.94 182.547 134.133 181.54 134.52 180.7C134.92 179.86 135.473 179.213 136.18 178.76C136.9 178.307 137.733 178.08 138.68 178.08ZM138.66 179.52C137.82 179.52 137.153 179.793 136.66 180.34C136.18 180.873 135.893 181.62 135.8 182.58H141.26C141.26 181.967 141.167 181.433 140.98 180.98C140.793 180.527 140.507 180.173 140.12 179.92C139.747 179.653 139.26 179.52 138.66 179.52ZM149.629 189.2C148.296 189.2 147.229 188.74 146.429 187.82C145.629 186.887 145.229 185.5 145.229 183.66C145.229 181.82 145.629 180.433 146.429 179.5C147.242 178.553 148.316 178.08 149.649 178.08C150.209 178.08 150.696 178.153 151.109 178.3C151.522 178.433 151.882 178.62 152.189 178.86C152.496 179.1 152.756 179.367 152.969 179.66H153.089C153.076 179.487 153.049 179.233 153.009 178.9C152.982 178.553 152.969 178.28 152.969 178.08V173.8H154.729V189H153.309L153.049 187.56H152.969C152.756 187.867 152.496 188.147 152.189 188.4C151.882 188.64 151.516 188.833 151.089 188.98C150.676 189.127 150.189 189.2 149.629 189.2ZM149.909 187.74C151.042 187.74 151.836 187.433 152.289 186.82C152.756 186.193 152.989 185.253 152.989 184V183.68C152.989 182.347 152.769 181.327 152.329 180.62C151.889 179.9 151.076 179.54 149.889 179.54C148.942 179.54 148.229 179.92 147.749 180.68C147.282 181.427 147.049 182.433 147.049 183.7C147.049 184.98 147.282 185.973 147.749 186.68C148.229 187.387 148.949 187.74 149.909 187.74ZM24.8 210.96C24.8 211.947 24.6 212.84 24.2 213.64C23.8 214.427 23.1867 215.053 22.36 215.52C21.5467 215.973 20.5067 216.2 19.24 216.2C17.4667 216.2 16.1133 215.72 15.18 214.76C14.26 213.787 13.8 212.507 13.8 210.92V201.72H15.6V210.98C15.6 212.14 15.9067 213.04 16.52 213.68C17.1467 214.32 18.0867 214.64 19.34 214.64C20.2067 214.64 20.9067 214.487 21.44 214.18C21.9867 213.86 22.3867 213.427 22.64 212.88C22.8933 212.32 23.02 211.68 23.02 210.96V201.72H24.8V210.96ZM33.4289 205.08C34.7489 205.08 35.8089 205.54 36.6089 206.46C37.4222 207.38 37.8289 208.767 37.8289 210.62C37.8289 211.833 37.6422 212.86 37.2689 213.7C36.9089 214.527 36.3956 215.153 35.7289 215.58C35.0756 215.993 34.3022 216.2 33.4089 216.2C32.8622 216.2 32.3756 216.127 31.9489 215.98C31.5222 215.833 31.1556 215.647 30.8489 215.42C30.5556 215.18 30.3022 214.92 30.0889 214.64H29.9689C29.9956 214.867 30.0222 215.153 30.0489 215.5C30.0756 215.847 30.0889 216.147 30.0889 216.4V220.8H28.3289V205.28H29.7689L30.0089 206.74H30.0889C30.3022 206.433 30.5556 206.153 30.8489 205.9C31.1556 205.647 31.5156 205.447 31.9289 205.3C32.3556 205.153 32.8556 205.08 33.4289 205.08ZM33.1089 206.56C32.3889 206.56 31.8089 206.7 31.3689 206.98C30.9289 207.247 30.6089 207.653 30.4089 208.2C30.2089 208.747 30.1022 209.44 30.0889 210.28V210.62C30.0889 211.5 30.1822 212.247 30.3689 212.86C30.5556 213.473 30.8689 213.94 31.3089 214.26C31.7622 214.58 32.3756 214.74 33.1489 214.74C33.8022 214.74 34.3356 214.56 34.7489 214.2C35.1756 213.84 35.4889 213.353 35.6889 212.74C35.9022 212.113 36.0089 211.4 36.0089 210.6C36.0089 209.373 35.7689 208.393 35.2889 207.66C34.8222 206.927 34.0956 206.56 33.1089 206.56ZM49.9536 210.62C49.9536 211.513 49.8336 212.307 49.5936 213C49.3669 213.68 49.0336 214.26 48.5936 214.74C48.1669 215.22 47.6403 215.587 47.0136 215.84C46.4003 216.08 45.7136 216.2 44.9536 216.2C44.2469 216.2 43.5936 216.08 42.9936 215.84C42.3936 215.587 41.8736 215.22 41.4336 214.74C40.9936 214.26 40.6469 213.68 40.3936 213C40.1536 212.307 40.0336 211.513 40.0336 210.62C40.0336 209.433 40.2336 208.433 40.6336 207.62C41.0336 206.793 41.6069 206.167 42.3536 205.74C43.1003 205.3 43.9869 205.08 45.0136 205.08C45.9869 205.08 46.8403 205.3 47.5736 205.74C48.3203 206.167 48.9003 206.793 49.3136 207.62C49.7403 208.433 49.9536 209.433 49.9536 210.62ZM41.8536 210.62C41.8536 211.46 41.9603 212.193 42.1736 212.82C42.4003 213.433 42.7469 213.907 43.2136 214.24C43.6803 214.573 44.2736 214.74 44.9936 214.74C45.7136 214.74 46.3069 214.573 46.7736 214.24C47.2403 213.907 47.5803 213.433 47.7936 212.82C48.0203 212.193 48.1336 211.46 48.1336 210.62C48.1336 209.767 48.0203 209.04 47.7936 208.44C47.5669 207.84 47.2203 207.38 46.7536 207.06C46.3003 206.727 45.7069 206.56 44.9736 206.56C43.8803 206.56 43.0869 206.92 42.5936 207.64C42.1003 208.36 41.8536 209.353 41.8536 210.62ZM57.903 205.08C59.183 205.08 60.1496 205.393 60.803 206.02C61.4563 206.633 61.783 207.633 61.783 209.02V216H60.043V209.14C60.043 208.273 59.8496 207.627 59.463 207.2C59.0763 206.773 58.4696 206.56 57.643 206.56C56.4563 206.56 55.6363 206.893 55.183 207.56C54.7296 208.227 54.503 209.187 54.503 210.44V216H52.743V205.28H54.163L54.423 206.74H54.523C54.763 206.367 55.0563 206.06 55.403 205.82C55.763 205.567 56.1563 205.38 56.583 205.26C57.0096 205.14 57.4496 205.08 57.903 205.08ZM74.4816 201.72C75.6682 201.72 76.6416 201.873 77.4016 202.18C78.1749 202.473 78.7482 202.92 79.1216 203.52C79.4949 204.12 79.6816 204.873 79.6816 205.78C79.6816 206.54 79.5416 207.173 79.2616 207.68C78.9816 208.187 78.6216 208.593 78.1816 208.9C77.7549 209.193 77.3016 209.427 76.8216 209.6L80.7416 216H78.6416L75.1816 210.1H72.3416V216H70.5416V201.72H74.4816ZM74.3816 203.28H72.3416V208.58H74.4816C75.2549 208.58 75.8882 208.48 76.3816 208.28C76.8749 208.067 77.2349 207.76 77.4616 207.36C77.7016 206.96 77.8216 206.46 77.8216 205.86C77.8216 205.233 77.6949 204.733 77.4416 204.36C77.2016 203.987 76.8282 203.713 76.3216 203.54C75.8149 203.367 75.1682 203.28 74.3816 203.28ZM86.883 205.08C87.803 205.08 88.5896 205.28 89.243 205.68C89.9096 206.08 90.4163 206.647 90.763 207.38C91.123 208.1 91.303 208.947 91.303 209.92V210.98H83.963C83.9896 212.193 84.2963 213.12 84.883 213.76C85.483 214.387 86.3163 214.7 87.383 214.7C88.063 214.7 88.663 214.64 89.183 214.52C89.7163 214.387 90.263 214.2 90.823 213.96V215.5C90.2763 215.74 89.7363 215.913 89.203 216.02C88.6696 216.14 88.0363 216.2 87.303 216.2C86.2896 216.2 85.3896 215.993 84.603 215.58C83.8296 215.167 83.223 214.553 82.783 213.74C82.3563 212.913 82.143 211.907 82.143 210.72C82.143 209.547 82.3363 208.54 82.723 207.7C83.123 206.86 83.6763 206.213 84.383 205.76C85.103 205.307 85.9363 205.08 86.883 205.08ZM86.863 206.52C86.023 206.52 85.3563 206.793 84.863 207.34C84.383 207.873 84.0963 208.62 84.003 209.58H89.463C89.463 208.967 89.3696 208.433 89.183 207.98C88.9963 207.527 88.7096 207.173 88.323 206.92C87.9496 206.653 87.463 206.52 86.863 206.52ZM101.172 216.22C101.172 215.98 101.179 215.7 101.192 215.38C101.205 215.06 101.232 214.787 101.272 214.56H101.152C100.845 215.013 100.419 215.4 99.872 215.72C99.3387 216.04 98.6454 216.2 97.792 216.2C96.4987 216.2 95.4454 215.74 94.632 214.82C93.832 213.887 93.432 212.5 93.432 210.66C93.432 209.433 93.6187 208.407 93.992 207.58C94.3654 206.753 94.8854 206.133 95.552 205.72C96.2187 205.293 96.9854 205.08 97.852 205.08C98.692 205.08 99.3787 205.24 99.912 205.56C100.445 205.88 100.872 206.273 101.192 206.74H101.272L101.532 205.28H102.932V220.8H101.172V216.22ZM98.132 214.74C98.8654 214.74 99.452 214.607 99.892 214.34C100.345 214.073 100.672 213.667 100.872 213.12C101.072 212.56 101.179 211.867 101.192 211.04V210.68C101.192 209.32 100.965 208.293 100.512 207.6C100.059 206.893 99.252 206.54 98.092 206.54C97.132 206.54 96.4187 206.92 95.952 207.68C95.4854 208.427 95.252 209.433 95.252 210.7C95.252 211.967 95.4854 212.96 95.952 213.68C96.432 214.387 97.1587 214.74 98.132 214.74ZM115.297 205.28V216H113.857L113.597 214.58H113.517C113.29 214.953 112.997 215.26 112.637 215.5C112.277 215.74 111.883 215.913 111.457 216.02C111.03 216.14 110.583 216.2 110.117 216.2C109.263 216.2 108.543 216.067 107.957 215.8C107.383 215.52 106.95 215.093 106.657 214.52C106.363 213.947 106.217 213.207 106.217 212.3V205.28H107.997V212.18C107.997 213.033 108.19 213.673 108.577 214.1C108.963 214.527 109.563 214.74 110.377 214.74C111.177 214.74 111.803 214.593 112.257 214.3C112.723 213.993 113.05 213.553 113.237 212.98C113.437 212.393 113.537 211.687 113.537 210.86V205.28H115.297ZM122.84 205.08C123.76 205.08 124.547 205.28 125.2 205.68C125.867 206.08 126.373 206.647 126.72 207.38C127.08 208.1 127.26 208.947 127.26 209.92V210.98H119.92C119.947 212.193 120.253 213.12 120.84 213.76C121.44 214.387 122.273 214.7 123.34 214.7C124.02 214.7 124.62 214.64 125.14 214.52C125.673 214.387 126.22 214.2 126.78 213.96V215.5C126.233 215.74 125.693 215.913 125.16 216.02C124.627 216.14 123.993 216.2 123.26 216.2C122.247 216.2 121.347 215.993 120.56 215.58C119.787 215.167 119.18 214.553 118.74 213.74C118.313 212.913 118.1 211.907 118.1 210.72C118.1 209.547 118.293 208.54 118.68 207.7C119.08 206.86 119.633 206.213 120.34 205.76C121.06 205.307 121.893 205.08 122.84 205.08ZM122.82 206.52C121.98 206.52 121.313 206.793 120.82 207.34C120.34 207.873 120.053 208.62 119.96 209.58H125.42C125.42 208.967 125.327 208.433 125.14 207.98C124.953 207.527 124.667 207.173 124.28 206.92C123.907 206.653 123.42 206.52 122.82 206.52ZM136.969 213.04C136.969 213.733 136.796 214.313 136.449 214.78C136.102 215.247 135.609 215.6 134.969 215.84C134.329 216.08 133.569 216.2 132.689 216.2C131.942 216.2 131.296 216.14 130.749 216.02C130.216 215.9 129.742 215.733 129.329 215.52V213.92C129.756 214.133 130.269 214.333 130.869 214.52C131.482 214.693 132.102 214.78 132.729 214.78C133.622 214.78 134.269 214.64 134.669 214.36C135.069 214.067 135.269 213.68 135.269 213.2C135.269 212.933 135.196 212.693 135.049 212.48C134.902 212.267 134.636 212.053 134.249 211.84C133.876 211.627 133.336 211.387 132.629 211.12C131.936 210.853 131.342 210.587 130.849 210.32C130.356 210.053 129.976 209.733 129.709 209.36C129.442 208.987 129.309 208.507 129.309 207.92C129.309 207.013 129.676 206.313 130.409 205.82C131.156 205.327 132.129 205.08 133.329 205.08C133.982 205.08 134.589 205.147 135.149 205.28C135.722 205.4 136.256 205.573 136.749 205.8L136.149 207.2C135.856 207.067 135.542 206.953 135.209 206.86C134.889 206.753 134.562 206.673 134.229 206.62C133.896 206.553 133.556 206.52 133.209 206.52C132.489 206.52 131.936 206.64 131.549 206.88C131.176 207.107 130.989 207.42 130.989 207.82C130.989 208.113 131.076 208.367 131.249 208.58C131.422 208.78 131.709 208.98 132.109 209.18C132.522 209.367 133.069 209.593 133.749 209.86C134.429 210.113 135.009 210.373 135.489 210.64C135.969 210.907 136.336 211.233 136.589 211.62C136.842 211.993 136.969 212.467 136.969 213.04ZM143.139 214.76C143.406 214.76 143.679 214.74 143.959 214.7C144.239 214.647 144.466 214.593 144.639 214.54V215.88C144.453 215.973 144.186 216.047 143.839 216.1C143.493 216.167 143.159 216.2 142.839 216.2C142.279 216.2 141.759 216.107 141.279 215.92C140.813 215.72 140.433 215.38 140.139 214.9C139.846 214.42 139.699 213.747 139.699 212.88V206.64H138.179V205.8L139.719 205.1L140.419 202.82H141.459V205.28H144.559V206.64H141.459V212.84C141.459 213.493 141.613 213.98 141.919 214.3C142.239 214.607 142.646 214.76 143.139 214.76Z" fill="#272727"/>
</svg>
